<mxfile host="app.diagrams.net" modified="2022-03-31T15:55:40.251Z" agent="5.0 (Windows NT 10.0; Win64; x64) AppleWebKit/537.36 (KHTML, like Gecko) Chrome/99.0.4844.84 Safari/537.36" etag="Xtgtc2vkavzRwIXCJBfP" version="17.4.0" type="github">
  <diagram id="WShZK_5UsLinYaTAfnjR" name="Page-1">
    <mxGraphModel dx="782" dy="436" grid="1" gridSize="10" guides="1" tooltips="1" connect="1" arrows="1" fold="1" page="1" pageScale="1" pageWidth="827" pageHeight="1169" math="0" shadow="0">
      <root>
        <mxCell id="0" />
        <mxCell id="1" parent="0" />
        <mxCell id="-fu1nE9woaN9EDl2x0Zj-1" value="" style="rounded=0;whiteSpace=wrap;html=1;" vertex="1" parent="1">
          <mxGeometry x="33.67" y="80" width="716.33" height="460" as="geometry" />
        </mxCell>
        <mxCell id="-fu1nE9woaN9EDl2x0Zj-2" value="" style="endArrow=none;html=1;rounded=0;" edge="1" parent="1" source="-fu1nE9woaN9EDl2x0Zj-1" target="-fu1nE9woaN9EDl2x0Zj-1">
          <mxGeometry width="50" height="50" relative="1" as="geometry">
            <mxPoint x="380" y="250" as="sourcePoint" />
            <mxPoint x="430" y="200" as="targetPoint" />
          </mxGeometry>
        </mxCell>
        <mxCell id="-fu1nE9woaN9EDl2x0Zj-3" value="" style="line;strokeWidth=2;html=1;" vertex="1" parent="1">
          <mxGeometry x="50" y="120" width="680" height="10" as="geometry" />
        </mxCell>
        <mxCell id="-fu1nE9woaN9EDl2x0Zj-4" value="Home page" style="rounded=0;whiteSpace=wrap;html=1;" vertex="1" parent="1">
          <mxGeometry x="330" y="50" width="120" height="40" as="geometry" />
        </mxCell>
        <mxCell id="-fu1nE9woaN9EDl2x0Zj-5" value="" style="shape=stencil(lVfbchsxCP0avzISSEJ6TtP/yEycxtM0zjhOL39fdnbWNdQ+G7+t16DlAOeANnL3/vzwtt1wej8e9t+3v3aPx+eNfNkw716ft4fd0Z42cr+Ru6f9YfvtsP94fZx/vz1MltPTj/3P6YTfs1+ilCYnTn/mF6WQzm++zvYvu1dn37q3tzftun0mZWcvg3q9bi+Uxi3xCGmIZxCX6/aVUnb2tVAF8TRif34zvPm6vVL357dKGZw/qKZoP8D5ORP7BDWhBgBnIRaPeCw5vuxQiX3JaqbKwEEpN18DpoIcLIDqm4Kp9usO1nXqQXOBVWYmVueQO2X0BaHiv5BxHSyA4kHnRk2BQ10COAtpIAyNsm8NIxOjkJTEg55QIdAjksGOYIBB8n+Fy9RBpcUC8BjECAJCkrqow6mXKhWkFz3WocrSLBcdSo6gG1MGGIqQeAdNMCSLWDwG7TgkI5Bvvl6hyBTrHM/pkaDK1BSzNATywSjffUgD67BlPTBuNNitpruh0kNJBTi0SNGxIvVG+SAC6TTuLnuMhfOf9WiZSrklKGu2rrfAboUk3ZJYGyBhJI4Mlanpct6p/QqcEK1T9ZVQLDTN8upHygrn1Ejq07oyg9TO8xgKBm0RB86tzCAtUQZMoGFIJgOepDYCFKxKanX1jGCsG6qUwnJV4HKlp1b75KQ24So+pIr5oCPuAlVxWkeUsqnhAehu+1dYgBRi6Dlq35oDx0nd8Gg3hyCWK0tclwtbH9LviZB6U5YKtZBWvCbaxMmecZNSgcKZQw8Y8GbcjS4egyl6AnzoGmVmZbfvfeHX2eUE1cGmZpCZFREwJY0rFl5EB5N6Aq3slTZmQ/Nh/owaNyyGK5wNj+obAxPaplNQgBX7HocJFm6zV59RuwGCcWjjNQcJg/c3sw9EsC0ZxHM28E/TcNHxqx8Y0N4e/t2+n3YvL/Pl/fz/eFu3V/NNX+7/Ag==);fillColor=none;" vertex="1" parent="1">
          <mxGeometry x="298.66668701171875" y="103.75000381469727" width="163.16668701171875" height="10.999996185302734" as="geometry" />
        </mxCell>
        <mxCell id="-fu1nE9woaN9EDl2x0Zj-6" value="" style="shape=stencil(lVfbchoxDP2afdXYli3Jz2n6H5kJKUwpZAjp5e8rurM0UkDgN9g9Al3OObInfHhbP72uppLejof999WvzfNxPeGXqZTNbr06bI76acLHCR9e9ofVt8P+ffc8f399OiFPn37sf55+4fcclyClU1BJf+YHhJDp35OvM3672UX4VoAwwmeLrxVKjvAVLT4BpQjPZPDYofJ1fAbsFt+gBfkXKGzxBaRfxyNgtfgMTa7j6/Lvd+Ib8BCeoPeR/AUwW3w8rw6NR/qZE3QaCijLPO+sOGvCtmRtApYggHzNuQPXIECguYBYNMpSalY1UCJ88VPOYQXKIra/f5bpZTxBHcIziGMd9BbgBcSqoIck0tdsR5bb8uSyypIP0JZhIHvljNOB1hT5FqInhRYV1aw6Yet0mmQ0ZCTIdgi3rIWhDXkXasZiAyTkqXotOrdO4RyqStGquSLUgKlVS7QpVYIUtFXXBbqFIECRoTboPBSgRBgL6AvVzmqO5amvs62hcThp3alOb1TDrdb0tWUr57CtrXkBcayH9mmRSMzWJpAsNYQWV7gc0CHZtkq8yklNS4YCtCdlJCUN6FYPEiuO1LjLUABCs04psUSVCGjb2gvkwFupLUQ4B3BolRogdg45xeuBtIuWfT1WEIkfda/hxiU9ZpSRNnHyLsCxfbMeMyyZNMnIyRi9IFq85FiZ4I7OsW0wLQI7G1M8OS3RbZRbAZqxc+N4cJL82arF1JC8NPHegPJpo9xICYFcl2IuSQWxKd24MqiE/ZH1xhmaodh/uHHYUDI78ukBMexSh15GAnoGGkqp48LNO4/dqmDfJQlvbmpDxW3FmBofbOjq5VM//L/pvmy22/mi/PG9vxnro/lWjY9/AQ==);fillColor=none;" vertex="1" parent="1">
          <mxGeometry x="322.66668701171875" y="98.66666793823242" width="132.3333740234375" height="6.333332061767578" as="geometry" />
        </mxCell>
        <mxCell id="-fu1nE9woaN9EDl2x0Zj-7" value="" style="shape=stencil(lVrbchs3DP0avXJIguDlOU3/IzNxak1dO+O4bfL3BavhSgS4R6s3WcbRgrgegHuiTz+ev3x/OkX/4+P97c+nf89fP55P9NspxvPr89P7+UM+nejziT59e3t/+uP97e/Xr5e/v3/pkv3TX2//9F/4ecGRo9hB0f+6fMEutf+/+P0i/nJ+ReLZMRSPPIk3FwmJe5rEA7mc9+Wjq3WWzy5VJJ9ndaJ3jZE8lVmeXY1I3rdJnuT3gT7BFSWfXQTnDY7DJJ+CSwHJx9meSewD7B+c93MweFeBe+W/sz6cXC5IPs/25OqCR/Kc52gL0D7epTTLJ0fAv97RbJ9cXILyyp5FngjPG2b9C93RJ8zZVdg1eF4/27NUlxOUn3+/BhdAfHodD5VGBh2UF/1Bvlh9iisgns15q9QT+PthjocmEQXl4+yvJhmK423Wp0XXQH55V5R8GhGyl79KHx4RuyPf5vhsON+jzt8m8Q/0ISNfXQL2TK4q+zcYb2x+v8H6n3U9EXlk/zK03fqF30J2B9D4kQdU0+/aKPE78mQOgA5c9QFEHgV01QVU5FGBqwuHEUjIpulAdzBqSGJu9YDqGnBACAsAo5SJRiXpMeDIQjGKspEUIZRkkoNNAwg4IRRNCyQtG7KSuCFrQEZ57DWxuZf4htkIAFVSSWXthzxOtQaw42oA6AliJVPsIDmrxg88+OAa0EZzvAUAPwh7q6QBBfRXCqPd3QAQISLpF+YMjJ5ACwCiIMTGcQIAGScU1FcNQE2HioteAxBLozpI6w0goCli5biA+o7QbgPwIJZSdLE8BBAiZDwNAdILH3vCyg/w0GX01oNmTXXU6oOOS1utPhgaqY3p8GDwybwRbbSC8O4DijErSiCWGYo1ICOV4kIllNNMC8ehqiFDkzd+QHWJeUxNBysfS3E3fkC1lYtj0x9Q9ZZBTlc+3B+yzF6mx6EOlG1t3U61BtAIhBsAA09nXqhUEKAMjW8bO/BDbiY0ymCMa/5pC5l4BjHcOLjLDaAihpvGvueGL3kQfEWsboaAiABl7ExuAcBKRThk0QA0Nlc/ispRQDC8+A4gjkA4CiBD4e4A0ti0HAWw4ep3AHnhBwgoj6pUx7bi4Hwo47ha+HUAyGmZxz1rABoHZCC3T0BUupHeSQgAFQEB6BmxwqWBzPzFACpSiYfVjwNs8MFDZ7NowENTr6RmaEKFrFdS06dRy7qOSBuA4C5MFNCO21r9HkBthyR+UWPvR5yrt+QgWt80s2+QwoMmRQHk+dBSPANyXNEbZGkAFZ9BRWuuIxzXgKqtlBPOB6kRc6mUVl+Qp6veogldaYAv9WBWa2oaz9wDlPkMQkwrcpzZgyTMBPoWQ23aZUBAh266kCW8muyLlTnjZO5CbEYAKlopwcuRvuqZ/SDjLNoG9l3SHHx934RVUjuBKKUNebrpthsjTqCm8yHgG6fWdKnsV0ho49V0Xep3VCjjms64vtNCGyxv1+iugEMvABlyvq7S7IeN+e5adY6MBCfRHknzke/mZ56zJ8Jrts6BVRyNurnXS5R9Ik7OpBd2EU5L0mhUENFIpTVPWtinYuZm7I+maOGSqmYnqL90JdV2cDxYgs5Dwb0JQBW7DLfEMpMoHpnHqm9v6FFTUoZb9GKWBhk2TWmRSd0TwgYlg2SZ47PAkSpHTbSxPLfH9Jd+yloe2UfaadD+QlU3bZcQx+IhGfswHP3tdg5fM1PV9sH1injcOl7zEV2jUrTyqL6RueeMeFFd9L4zwp1WZH0Pthlsb5mvFn9hbJX3bgv0exbwVqv/nFfyjM5rLnkCrJ/9nla11FGQ1g2yDR5zI48unaruLx6OHsH0Iw/715ViXOUzsGdgXc89nGwC6esgj18TMe+teBg/wbyXsV20r/ujVR9fulZtTSSe9aUxFmfN1O+Jh0eUSYOpHRUnbXgsHrTdsbiiPdv7E+syZQ2J9nqkSRsOMtKzMI550ltGnIKkV+gBrhijJlR3CpoZdMaV144yd96pkw/X9/G+nV9eLq/z3f5fv78nX13e/aPP/wE=);fillColor=none;" vertex="1" parent="1">
          <mxGeometry x="140.0833625793457" y="157.33334350585938" width="358.4166679382324" height="121.33332443237305" as="geometry" />
        </mxCell>
        <mxCell id="-fu1nE9woaN9EDl2x0Zj-8" value="" style="shape=stencil(fVbZbttADPwavRLLPcnnNP2PAHFqoa4dOE6Pvy8FQa2Xa82bvOYsjyFnOaWnj+PL+2GK4eN2vXw//Jpfb8cpfZlinM/Hw3W+2deUnqf09Ha5Hr5dL5/n1/X3+8tiuXz9uPxcbvi94jgECmGBxfBnPfp38HUFnObzHUCVuHX2vB08ts9U+vsTSQX2QzyVKohHGgl39kLMwD5RK338gSTuA5pSkh5gV2QAKD4DriQKAIE0d4CFg7QPqHZfH5IVNQEPNXoSYqMIWCtDVZPRDJIuiXKfQ8okwENWCrUHCCQ6Z6raAXKkBIjLgWrqAYUUtEZqxM6DUgYeLEWXQ4nUQA5WxOIAZQvyISAOzVeEIhgf49UxXXF7x+KbryZi5GHgoZbN52OA3dfzUBs15GGoUlVSBAiU+m5tkYLsA3hovpZIQQ4sPgeb8gpC4qGXGp440wiXdBPSAgAWQOyFL1BGSQ+6JAxHlLNvPhNPpK08aKtkqBo8qIZYkEDIeOglqRSQh0H5DKDIA3tttRemYYAjTrCQGSC6KpnMIMDwPtgjyUA1eJgHA8BH14+0MlX0qPvxUSszYEF8X2iCwiq+LWyLSKBCw2ulhRjau+E0e0EPrqdYbSlBr+FAWNsy2rH3fAlcqgYJNnsU/zCXtsUhMYpDPXWrwI69r6dSQ0LhJ+BuDX0ICF7rzIEAcRyWyGVt7RrOPv7vxG/z6bSu1Pf/+x3ajtb9Oz3/BQ==);fillColor=none;" vertex="1" parent="1">
          <mxGeometry x="236.00003051757812" y="158" width="26.666656494140625" height="114" as="geometry" />
        </mxCell>
        <mxCell id="-fu1nE9woaN9EDl2x0Zj-9" value="" style="shape=stencil(lVXLjsIwDPyaXkdJHOdxZtn/QKIs1bIUFfb195uqKosr1aW3EGac2jO2K9pcj7tLXTlzvXXte/3d7G/Hil4q55rzse6aWzlVtK1oc2i7+q1rP8/74fdl1yP700f71Uf4GXgGxvQkZ36HC2vuV68D4dScBYGcIGRC4Hm8hfUCnxI4zuMdDEm8QVbiOyQZPxKSncd7UBL4YJGVfAOCjM96fTIoCDwFNb51YElwrD5gA6yVkhGsRsjIkkC6Ah5e4vWMXZrGL5rneTzRNL5HDAo+wksJMtgpCls4aSHL8EkheDBLCSw8KYSIIF9wuqmLZ3yUEng1B3aI8oUFG3GpoSwSZThFBQ7jB9xVsAhaDglWdk6pm1E6k/PYuHdCUMtaOjFNCEnt5UBTHRaaM/DotGcJJWla80mxTKu4JunoR5meLGuM04m3IFwq/SCFW7BG8kirzNeP9MmE0e2di9LSfGUokFKlzOC0ipDGmfgk4WHvzTLK4X+PHprTaVjDj/9P9265GnY2bf8A);fillColor=none;" vertex="1" parent="1">
          <mxGeometry x="164.00003051757812" y="178.33333587646484" width="70.33332824707031" height="7.000007629394531" as="geometry" />
        </mxCell>
        <mxCell id="-fu1nE9woaN9EDl2x0Zj-10" value="" style="shape=stencil(fZTbboMwDIafhlsrsXPydde9R6XSgcagonSHt19QFEYy4Ttj/Dn2n9gNnR7d5d42qB7LPL23X/116Rp6aRD7sWvnfolWQ+eGTrdpbt/m6Tle0/f9skau1sf0uWb4TpwCpVYI1U9yaLW5XhMw9OMO0BBsAbAGEuIdOF/EBweKhfwGkEtAgUYBCODLinwAdMdALEm7EiBgfQyQyfk2QIGzx4ChugcXwIRjwP5T1TlRVcvgsQQsoKBSzMflRTsDmo4Bj8DVCRpYkDWqrnQB2HgzQg8BwVSAARJkjS+HTAEYD0HoIXDOtwFKVIkxa5IB0mAlwIApS0L5LbHPBWwDF1MI88AMtmpaFGk3vxmoBzoaf+vg1g9D2ib7//X6iK60euj8Cw==);fillColor=none;" vertex="1" parent="1">
          <mxGeometry x="185.3333740234375" y="195" width="36" height="7.666656494140625" as="geometry" />
        </mxCell>
        <mxCell id="-fu1nE9woaN9EDl2x0Zj-11" value="" style="shape=stencil(lZTdboMwDIWfJrdHSZzf6657j0qlA41BRel+3n5BaBtGqxF3ITmf7RMcKzrc6tO1UlbfxqF/rT6a81grelLWNl1dDc1YVoqOig6Xfqhehv7enefv62lSTqu3/n2K8DlzGlpPkNVf84bRv1vPM9A23QIwcBzIst4jBaaPG/EdNAec/QnxP5BgMgPIwgsZSklrzwHWPwameDyDrHcaZHgCWZ+gHdNvXKkDWaZPiEJ8n+E9028UFAiRF0RRvNIQYXgGT2JJpQkctxC86DkSTOSAbDoGaL8LSMjEAfk3Jwu9Kkm+1uRheV942XRKIO7ByR5yeZ28U538FjIhJw7IvZcDwj4gIeQ9wGIAPSTK4m+gXZq2nefh8nw9AMvWPDzp+A0=);fillColor=none;" vertex="1" parent="1">
          <mxGeometry x="165.3333740234375" y="220.66666793823242" width="63.666656494140625" height="6.666675567626953" as="geometry" />
        </mxCell>
        <mxCell id="-fu1nE9woaN9EDl2x0Zj-12" value="" style="shape=stencil(lVTLcoMwDPwaXzW2Zcv2OU3/IzMhhSmFDCF9/H2hHigCqk5uwt4Vu5IshYdbeboWyupb37WvxUd17kuFT8raqimLruqHSOFR4eHSdsVL196bc/6+nkbkGL2172OGz8zToPVIsvorHyQP5H9OnjO+rpoF3kIihg8WHP2NDxB4fkdThl28QTCWESyBTgKBwEVGMAl8EBwMgg0jEHgr4ON0PSsCI+RHB4QMP9d4F+80YHhAj/MQHDccAIUKeQ2JC0ILZASCXxO8bIE0mMQtyJLIgeVjFGVJtGlCwqnv+3M3zJHnVdKyiRAfZcTNY0gBIgqEsB69f1wkC54XNsrPJ23+MBQiCYVdeJx7pyGy+R6C3/Vxqeo6b5/l/XrdDEd5VeHxGw==);fillColor=none;" vertex="1" parent="1">
          <mxGeometry x="170.66668701171875" y="239.66666412353516" width="45.00001525878906" height="3.8333358764648438" as="geometry" />
        </mxCell>
        <mxCell id="-fu1nE9woaN9EDl2x0Zj-13" value="" style="shape=stencil(fVTLbsMwDPuaXAlb8kvnrvuPAk3XYF1TtN3r7+cg6BYli26OTZqiqajhze24u7QNudv92r+2n93+fmz4qSHqzsf22t3rquFtw5tDf21frv37eT9+X3YDcli99R/DDV8jzzsH5wYaue9x63fjeSScuvOEIBmBFD4j0jq+CCQovBeUaBDC474HgcRWIHjtgBlc1gk5I+uSgkdmg0AQrRAEySgpFbikCDGZCikgFUVIHmIpeJBoQgIZucU895DEVIiLHDIjGh6ig9em60NTWieEgKJzKM5U4IIYNYFRDNNM86RLhjdagyIkK4I4BKNbazN7nYPUVzJK8oteEju4PO9uKWCjIgaxxtffRwzLj4wm+JDX8Yt5MRkh/zued2oVIMPA0nCCUwbq4m+eHbrTaRyH0/P5/Ktb4+zk7Q8=);fillColor=none;" vertex="1" parent="1">
          <mxGeometry x="272.7778065999348" y="181.33334350585938" width="17.22225443522143" height="73.88888041178382" as="geometry" />
        </mxCell>
        <mxCell id="-fu1nE9woaN9EDl2x0Zj-14" value="" style="shape=stencil(fZLdDoMgDIWfhtumtAhyvbn3WDKdZE4XdX9vPw3JJjK5K6VfyylH8G6oj7dSEA5j313KpzuNteC9IHJtXfZunCLBheBd1fXlue/u7cmfb8e5co6u3WPu8PKcRATEGSN8+9Q3cfBA49oFkGfAHNRLhFxvA0YChQNIguVtILOgwgnMgJQA1FoC52ASGhRBFgLKgk48iSNAI2QJ0cRrwKQBqSPAApoEINeip59JrVWBNkG9VcCJrUb9F1b5C0RGioEp+Bmxck3jfby8Xxt3SnnTc/EB);fillColor=none;" vertex="1" parent="1">
          <mxGeometry x="300.00006103515625" y="204" width="16.6666259765625" height="45" as="geometry" />
        </mxCell>
        <mxCell id="-fu1nE9woaN9EDl2x0Zj-15" value="" style="shape=stencil(fZTZcoMwDEW/xq93bHmTn9P0PzITUphSyBC6/X3NuAsmRW9C1kEWVxdlD7f2dG0U6ds8jc/Ne3eeW2UfFFE3tM3UzTlS9qjs4TJOzdM0vg7n8nw9LZVL9DK+LW/4KJzRGlovGOnPkvpNPBag74YVkCKMq+otmIV6go9VfUJ0+/Uc4G1VbyLICgCBQwWQgQ/7QAxwdQdipLgPhARK9cgBUQIMYg04BxaG9hapvlLOaAFwAbr+qkGD/T5geStDiEhJAO5miA5BWAzysLUOnDdJEM4khHqT2P30/B9wWx04QZMA6O2V8jY6YTUCTN0geVFo2nohMYygwp3XVvb7BnLw59VL1/fF6uvzrbdzqvwX7PEL);fillColor=none;" vertex="1" parent="1">
          <mxGeometry x="325.3333740234375" y="190" width="23.33331298828125" height="63" as="geometry" />
        </mxCell>
        <mxCell id="-fu1nE9woaN9EDl2x0Zj-16" value="" style="shape=stencil(fZNNcsMgDIVPw1aDECBYp+k9MhOn9tS1M477d/vioU4st7CT5feBJPQUHW7t6dooo2/zNL42n915bhU9KWO6oW2mbk6RoqOiw2WcmpdpfB/O+ft6WpRL9DZ+LCd8ZQ61Bq0XzOjvnLonnjPQd8MGiAjMQu+BfVkfEAwJPTI4LAOMoIMADAOHMuA9kBcAGWBTBlyqOArAGkAuA5YhWAE4BKqURBECSiCCq0yJCLSRU/XgYhl4zGQF0txCDTD7HphBV5rGAE6WlJ7S1QC7vusdcGArU0IEu7shAFdWI4CXLSzLWNFbIHl+9Otu/av/Y4WNO36BFDysdOn6Pjtx+39vvZTKtqXjDw==);fillColor=none;" vertex="1" parent="1">
          <mxGeometry x="365.6667175292969" y="177.33334350585938" width="26.999969482421875" height="72.33331298828125" as="geometry" />
        </mxCell>
        <mxCell id="-fu1nE9woaN9EDl2x0Zj-17" value="" style="shape=stencil(jZPdTsMwDIWfJreWY+f3eoz3mLSORpR26jpgb79EEVAPGnHnnJwvseNY8e7SH86dIrws8/TafaTj0it+UkRp7Ls5LTlSvFe8O01z9zJP1/FY1+dDcZbobXovJ3xWTiMCYsEIb1X6Fp4rMKRxBUQLgYXfgA/b/hCApV/zl/In4ANYL4B8A7UAgkgCYATy24BjQAkYhEDbgCXAIICiNB7JaDBaAI4gNFLKGccogFxViNsAEWgjgKDBmm1AG7CyhtwZ26gh78qMIoNrlGDAyD5HB7GREIJ7OD+CbzTh1z9dfd3/AfkC7db+HPzMxSkNQx2r9f7jHGWpziDv7w==);fillColor=none;" vertex="1" parent="1">
          <mxGeometry x="394.66668701171875" y="182.66665649414062" width="32" height="79.00000762939453" as="geometry" />
        </mxCell>
        <mxCell id="-fu1nE9woaN9EDl2x0Zj-18" value="" style="shape=stencil(fZLbDoMgDIafhtsGKCev3fYeJuIkc2rUnd5+GHYQN7kr5f+a9m8J5mNd9JZwOk5Dd7I3V041wR3h3LW1HdzkI4J7gnnVDfY4dJe2DO++mJVzdO6uc4V74BilQOmMcfoIqU/iEIDGtQsgk4A60kvgeltvFKhYzwRQtg1ouW6I+xK4DSgDIgYQAROAVJCJCBACdGIGIYHFgC8hEyb5BpSJAKXBJABv+spVwwBVwiVQcUcZfw/1V/+z5cXiX4APvldSuaYJR7b8X1+VT4WLxP0T);fillColor=none;" vertex="1" parent="1">
          <mxGeometry x="436.0000305175781" y="195.33334350585938" width="24.000030517578125" height="59" as="geometry" />
        </mxCell>
        <mxCell id="-fu1nE9woaN9EDl2x0Zj-19" value="" style="shape=stencil(lVrRchs3DPwavXJIggTJ5zT9j8zEqTV17YzjtsnfF1cNT8fl3Up6k2UsjwSBXQCnk3z68fzl+9Mp+h8f729/Pv17/vrxfJLfTjGeX5+f3s8f9ukkn0/y6dvb+9Mf729/v369/P39y2K5fPrr7Z9lhZ8XnHdFF1D0vy5fVOfl/y9+v5i/nF8H81wG8xBd88w+hdG+uhKYfWyDfRRXE7XPo726VJh9GO0l3jivH88rxeVI7eNgn6LLfH0/2hfn9QH7HFxoD+w/5+6xI3/C+s1Fel4Z/anR1UrjJ4322VW6fgH7esP/bQzn4l0l/jfv1dHe4pnET3BJRvvsPInP4HT0T1FX6foV7KsTkl8R77c0l0g8RBdHf1bvlK6fwN5ORM4bnQKdROr/iPdVkwtkP9K9sdrnzhgH9mX0T9XOYLv2ycmYv7V0gjywb2M81ErvNzuF/TTKn7bbMT6bRTjxf8H1m0UU4dvq2hhvjfNVsISHDYnzJOFDcK0hIJETB+kBswGwkAsZY8gAlT3BUqpMAHKGhSWmLVFA6qSwAhKlCbs3nxEQyRPEhCwggBGjSOfxDYBlppiQAiA7IaEkzakgoJDcNGms4CV1kSWbaUVDAFOP1Lq4r4BC5SxHFxQBSs5gcipwhuoCIwDTr4YAJYqsk4QYgEmUWiDAGRqNJS1IegZgoqDGWQEBrEozUY3jloJfK5l9REKhtUc0cnNlrfu2hyCnvgrrnW4ypcQctVqWZFDduzlPgqmuVLqJPmFbMrmaEiIzQMb6fclRpg/qdOIZRhuml2liskAurq4+uVMgDICaGHvVtA9oWDQbQEgGGQAFItCUMwCUqS3QpDYVR54JtG4zAJJr6K3VPiB0GtoAhOSo/buEhwBTUt8GVP/QGWQiphteMlmetsRS1GITy5nYs/wIUKeCicWS5RdU3AZgimIABYBQqrSUR5Fb/XYEQGWXLhlHgDoBCntCcWE6A8tpA6TJS6yuNwBG69paHgHaeNPGI6ycMa6G0YKRJ724tTPd9D6ZPwGaE9OkxqLViGw8tMkkq0MXRQOA7w3CEQDyQZX2AwbIY/Bp5LHUUBStIkr8CQUAqZ/qCAANRPa0RWlrC7YOYZQOhRbAuKXEWWNT7WzmSKyc2UNYzrFGa0bERslvD5F7t3Y3wq6b9VozIrSufXcjMu2R9xB8CrWHsMb2MV/xQekSI5BJtAPciSlOgFPQRhoeS1bAiXsjcpinYxZ52swtzKFgT0WoYtfOGwKzTx7sWRgtfRvunyqQ4iTT00GOFQIawZ+UxtY8udqzVFvmQqN/Im8FCvYOFg+sipZe0a780kfXR90PvCgQWuyVgl2o9NHgUcMHuiA06a2lBC1MlIKtZ4W+O9G6Tac+JlH114z2mfZ6Kr3Fvton1qQHrMEyHXLp1K1qH+0fzSVg8q90npRtORB+Kmgm2hCfpb+K2bdf55ZXe2HDpIZFrQUgWd8kvuB+WCOcEvJ/ofyQAg7oSif4/elZxTdTXF8k45uyG/axT0PutPd4v3z/y3KK/mQvIhT7U35fln7QIRRavhv9TfHD9MXoOKJes/gPDf3J9T3U6c0drZPDlF+cT0Lq9ct9fGUV0sRvjA+tPoKpC+fbiuWG0Eltwfdw0icq++zQ28/7xGUakwmdkgm6npvH6Z0yNQ/Yk3Fzj7MoNLcP15f7384vL5ffBmz/jz8GsK8uPySQz/8B);fillColor=none;" vertex="1" parent="1">
          <mxGeometry x="144.7500228881836" y="310.9166679382324" width="337.91666412353516" height="104.83335494995117" as="geometry" />
        </mxCell>
        <mxCell id="-fu1nE9woaN9EDl2x0Zj-20" value="" style="shape=stencil(fZTbcoIwEIafhtt/stkcr619D2fEytSKg/b09g2DoEth70L4v+whm7/izfW4u9SVNddb177X383+dqz4pbK2OR/rrrmVVcXbijeHtqvfuvbzvB++L7te2a8+2q/+hJ+BI2NgTI9Z8ztsTRuvA3Bqzk9A9qAo9A6G1vUpw0t9RoyKnuGc0FOAdwpQ8pUBSgVWySgyvJdAQFZSCgEsW8QOLq8DPoFZ9oiQrAIYRCuBhJjWAcdIskvew4Z1gEuJQQCBYJQamEAzIKgRShPv541ANAhKDdaCZFujAys3TRl2BsQxyWUggmcpZQRlNMgjy7amcnFahGkQJqDcDCtAGW+SQImpvDeyYDkaKaqjQQQrh+/xBJcBA5JFZwJ7xQJg5GRkHk9YfnBjzye9Q1T0Hklecw4gJR83ZjvpI5JSsB0bPunz6DmL+n8O+WSad6AsHg57aE6nwaCf/88duWwNbs7bPw==);fillColor=none;" vertex="1" parent="1">
          <mxGeometry x="235.00003051757812" y="320.6666564941406" width="23" height="88.66668701171875" as="geometry" />
        </mxCell>
        <mxCell id="-fu1nE9woaN9EDl2x0Zj-21" value="" style="shape=stencil(lVRJbsMwDHyNroQkaiHPafqPAHFqo64dOO72+8oV0IRqQ6A3mp7hMqRocHfpD+fOeHtZl/m5ex+Oa2/wwXg/TH23DGuxDO4N7k7z0j0t8+t0rN/nw4bcrJf5bYvwUXkWrN1I3n5WR2JA/PY8Vvw4TAKPWeBDgBDu4z1QEngfICrxE+Qo8M4Dx/t4AkaB18sv0bKs3+n4DOgE/kewv9v14GX9UY3vS/zQ9qslQA9RJigpU1YIBEFOALNaUhkoe9kCqoToILMgZKuWFAmizEC6Sim2qnJSVcoOmKSsVh9cLjLhvxhUFl/mYF1YYnCyCyI1A/96PFlvmyMEud1JX28mcM1ztkCsEBhCs35BLelGxauwzXYU43qeTsM41ut2+789Z8VVTyHuvwA=);fillColor=none;" vertex="1" parent="1">
          <mxGeometry x="168.66668701171875" y="331.00000381469727" width="60.66668701171875" height="6.249992370605469" as="geometry" />
        </mxCell>
        <mxCell id="-fu1nE9woaN9EDl2x0Zj-22" value="" style="shape=stencil(lVTbboMwDP0aXq0kzsV57rr/qFQ60FipKN3l72cUwWZWPPUtmHOc+PjYFe6uzeFSV85cx6F/rT/a49hU+FQ5156bemhHPlW4r3B36of6Zehv52P5vhwm5HR669+nDJ+FZ8CYieTMVwnkBFgizwXftWcVz5Gs4VMWeFoy3MUjpCjwMYK32/g4377gLbi4jc9ASeCDAxe28dZDlgQfICsEZwFpTTAaIYP3kpAgKQQksPGRGjifk00LfKciUuASnVSVwCelCwhZFp1oluEuIXGX5A1E4BQfpcWWi/HYGIqRiDWRslqjW4/YS/JN/8wCZUD7SBHZQlrJFCEoMmWcnbA0gpXW7B2AULbagFe8kQmifBKPoHfKQJg/K2AtKx9+1s2p7bqyrX7/X68nDpXVhvtv);fillColor=none;" vertex="1" parent="1">
          <mxGeometry x="180.66668701171875" y="345" width="50.66668701171875" height="9.250007629394531" as="geometry" />
        </mxCell>
        <mxCell id="-fu1nE9woaN9EDl2x0Zj-23" value="" style="shape=stencil(lVXLctswDPwaXXdIgiTIs5v8h2fi1Jq4tsdxXn9faDRUC1pG2htF7YLAYkEOtHndb8+7IbjX6+X0svsYn677gX4MIYzH/e4yXmU10MNAm+fTZffzcno7Ps3f5+2EnFa/Tu9ThM+Z58A8kYL7mjdqbjuPM/4wHhXeOYUvBd7GF4XPCcXfx3t4HT8SKln4TApPCbHcxwdQVnjJMBrxCaT1YSQDHpF1+EWvVXgGVQX3Ta5VeEH0Gi7tS4Y4S21LtRFsqRmQO/kdSjYIEk8XnAqcRWC4TtCEYBjIV9SkHepAwegwtXgLgVEMlaQLpXSy2m0jh6obUaXxRk5iStJHFG5GX/fRzZyxNL8ahCWBZdAqikWoSB3BIxiEFBF0DSk1GdYJpZnzHwlZ3Bf/x0w5w+s+SAgyzCSadDVkBsf7BJZ4+gQmeKPTnFvGC0GG3Drhxt/fdLoQuLMGIxopTVbrUorwxgkyYLFTqaAYJ9SbWzLH5q51Aveyptwu8nVCBXcEufmtd8TdTJA4PiozyeLPs/g8Hg7zq/r3//4Zla35CaaH3w==);fillColor=none;" vertex="1" parent="1">
          <mxGeometry x="172.888916015625" y="363.1666717529297" width="57.77777099609375" height="7.750007629394531" as="geometry" />
        </mxCell>
        <mxCell id="-fu1nE9woaN9EDl2x0Zj-24" value="" style="shape=stencil(lZTbbsMgDIafhluLYMBw3XXvUanpgpYlVZqd3n4wpC1xFk+9M+AP278tKzzcutO1VUbf5ml8bt/Tee4UPihj0tC1U5qzpfCo8HAZp/ZpGl+Hcz1fT8WzWC/jW/nho3IatC6Q0Z/1otFg/PfNY/Xv07DwN+Bp7Q/U7LtbCOvvf+L96R7uzKY8MyBCIAFAnhDmiqIABB7BBiAjCIRg14C3QFYAIk8paCChBiSeUkRwQg3W8QiNlvvg7EbXfwhvNkl5ICEp0lynqAGDABB4ppMBFHQKlk8TWUBhmkLkNXgP6PaBrDsHGnBCr7Mmhu4CwmaaZGDRp10iG7/r4JL6vm6T5TtfH/mqrh48fgE=);fillColor=none;" vertex="1" parent="1">
          <mxGeometry x="177.3333740234375" y="382.13335571289065" width="41.666656494140625" height="5.199980163574196" as="geometry" />
        </mxCell>
        <mxCell id="-fu1nE9woaN9EDl2x0Zj-25" value="" style="shape=stencil(fdJLEoIwDADQ03SbaRP6W6PegxlAOiIwgL/bC1NFisAuTfP6DaO4K5ImY8i7vq0v2cOlfcHowBBdVWSt64eI0ZFRnNdtdm7rW5X6cZOMlWN0re/jCk/vBOfA+ciQv3xqSpw8KF01A0aDCOuFAoq2geagZQAIAdU2kAqUCUAkQYsdwMGIAEgBaLcBGbDhDooAaRugBqsCoGn3SMKAwQAY/L7bKrDLO9vp2davADo8kFUQ7dT//fLs4z9gCH5dkruy9E02n1921ZDyHUnHNw==);fillColor=none;" vertex="1" parent="1">
          <mxGeometry x="261.6667022705078" y="350.0000305175781" width="30.999984741210938" height="51.666656494140625" as="geometry" />
        </mxCell>
        <mxCell id="-fu1nE9woaN9EDl2x0Zj-26" value="" style="shape=stencil(fZJLbsMwDERPo+1AIvVdp+k9AsSphbp24Dhtc/vYENCabq0dRc0TNOQoPtza07VRpG/TOLw3X/k8tYpfFFHu22bM01wpPio+XIaxeRuHe38u5+tpUS7Vx/C5vPBdOKM1tF4w0o/S+mm8FqDL/QqICdEIvTGwdh8IDs4LgBw47AMuIZEArEagCkCwLIEIrgAcEZMAvEFw+wB5aCuAYEEVwDhQFEC0cKYyVnipTwbEFc8guYVkEeK+/s+WV4v/3zL05kMBwVcc83amMYCF47n4jeEld11J8fp+G9u5VSLPxyc=);fillColor=none;" vertex="1" parent="1">
          <mxGeometry x="296.66669718424487" y="356.0000305175781" width="23.999989827473883" height="44.66664632161462" as="geometry" />
        </mxCell>
        <mxCell id="-fu1nE9woaN9EDl2x0Zj-27" value="" style="shape=stencil(fZLbTsMwDIafJreWDzlej/Eek9bRiNJOXYHt7WkUBDUovbOd/4tl+zdyuPWna2cYb8s8vXaf+bz0Rp4Mcx77bs7LGhk5Gjlcprl7maf38Vzz66koS/Q2fZQf7pUjREAsGOOjln4KzxUY8rgBEkJySp9AYlsfCViUniJgaAMBQYICOELY6eAtOFKAWIjUBpyAJAVYB8G2AcvAUQHOg9+ZQQiC7uADlLQFrEsnr4CQgP3OWsFbfQUC2pn535U3h/8G1uDXJZc8DNVk2/e/rlpL1ZFy/AI=);fillColor=none;" vertex="1" parent="1">
          <mxGeometry x="331.00006103515625" y="348.0000305175781" width="27" height="45" as="geometry" />
        </mxCell>
        <mxCell id="-fu1nE9woaN9EDl2x0Zj-28" value="" style="shape=stencil(fdLNDoMgDADgp+HalIKoZ+few0ScZE6Mur+3n4S5yTZ2K20/SGiZKKa2GjQjnObRHvXV1HPLxI4Rmb7Vo5mXiImSiaKxoz6M9tzX/jxUrtNFJ3txN9y844iA6Bjh3adeib0Hnek3ICPgMuh3II0DhZDyAEgEKeJAqrW8gkSCyv8ABEUBWN4kigPKgIcgJciSOOACePhJWbpmfoIEhAr68wS4ivd/DWEzlydYgvcQG9N1fge29c+hLym/MKJ8AA==);fillColor=none;" vertex="1" parent="1">
          <mxGeometry x="369.3333740234375" y="352.0000305175781" width="18.66668701171875" height="30.999969482421875" as="geometry" />
        </mxCell>
        <mxCell id="-fu1nE9woaN9EDl2x0Zj-29" value="" style="shape=stencil(fZLdDoMgDIWfhtumFAS8dtt7mKiTzKlR9/f2g7Bs4iJ3pfRrD/QwUcxtOdaMcF6m4VI/bLW0TBwYke3berKLi5g4MlE0w1Sfp+HWV+E8lr7SR9fh7js8A8cRAdFjhK+Q+iZOAehsvwKMBCmjei6B631AIygdAWRAqX0gM8BjRRJBUwIgyDaAApXtA66fERGQpSUJBEkRoHKgfB8gvn20NiASkjgBxROMTv/Sdm25AkzU/615tfkP4IKfTRrbdcFl6/utrVwqWFIc3w==);fillColor=none;" vertex="1" parent="1">
          <mxGeometry x="405.3333740234375" y="346.6666564941406" width="20" height="42.333343505859375" as="geometry" />
        </mxCell>
        <mxCell id="-fu1nE9woaN9EDl2x0Zj-30" value="" style="rounded=1;whiteSpace=wrap;html=1;" vertex="1" parent="1">
          <mxGeometry x="340" y="300" width="120" height="60" as="geometry" />
        </mxCell>
        <mxCell id="-fu1nE9woaN9EDl2x0Zj-31" value="" style="shape=stencil(lVbbbtswDP0avxKSSEric9f9R4Gmi7EsKdJ0W/++NAw5oewQyJstn2PxcnSoAZ8+9i/vuyGFj8v59Hv3b3y97Af8MaQ0Hve783jRpwGfB3x6O513v86nz+Pr/P7+MiGnpz+nv9Mf/s+8ACFMpBS+uoWfM/wwHg084kNwYgOPEPA+PAIVA2fgeB+eAKOBV8B8H45Qkg0GIdb7eIZsfx+lrWziCwgZvK4EBx9DHxBmyE4CGm8VQyAlJIdQgG1IXKA6KWsH0MohVyBxCAzBdrhUiOQQKhRLqBnYkRCuuiwIiR0CQ7FJS4VQHELtGxeDL2uKIDYJEVd6RL2WhN2sqbQqLoQA6GRN0qSz1JWaWrbVnZr4l84JkCMmJhCbQ8HWmm1CgWx3UDFFpxE5AHcEhOwRENjaEQtUJ6ScVweCWyu3CQLcWVIC8kwgAVtpUIXkeF5ZhLAQ1Kg8Qu09GMXdoWpZrTSQ3B1qgmJ9BoO/g0rNOllSY3LEp2c+27JO7uwRtIgdIbZWbhOkOeONe4tD0PNVOruvkB1pSGyfbwie38tKGurPwQtJz5dNOqq3OTYjBHE14qrTOCXULukEyTGBybaslnSKeUNR8sq+Ab0NSrshXIe6W6O1ybQBs41XIdnjxq7wFN/5KrvzTQdBeBCP3OHJsTzFc49nH1/wgXxvRt+1oGQkpA/X2+TbeDjMl9Hb7/3tU5fmmys+fwM=);fillColor=none;" vertex="1" parent="1">
          <mxGeometry x="46.66668701171875" y="434.66668701171875" width="684.6666870117188" height="25.91669464111328" as="geometry" />
        </mxCell>
        <mxCell id="-fu1nE9woaN9EDl2x0Zj-32" value="" style="shape=stencil(lVdJchsxDHyNrigS4Hp2nH+4ynKkiiK5ZGX7fTBRcSLAMy3nJtPdHCyNhRt5eNs9vW43HN4u59PX7c/982W3kU8b5v1xtz3vL/prI48beXg5nbdfzqfvx+fr369PE3L69e30Y7rh15XXMnGcWBx+X09ioND/nny+Eg774y2BqWZDqONgGR8oNYPP1No6vlYq1qBEuQJ8ptoNXqgDe2qkHgyeqcg6vlRqyQaIcgJ4pmbjE6C/uZIEh0/g/hwpsMOHsI5PGj5vD8JLo+TxzACvevD2lLKOn+Qi/xFPTU+39+N8xebjn0iAnmMmsfkt1EB8IpNYPXdqQJ993Da7K1TA/ZWyvT5W6kg/JMWGRwUYQb4o2/LiRgHYzxRsukSoAnzw6ZJOBcQ/ULT+pjxOVvDBxjNjvQWSavGFItBbpGjjUyIVoH+mZO0pqh/gbyJ27TNSAvhCydqvDQ/524mtnGvH+heKNmFNRgiWCVrA9gut4AgJse3QDUuCZ4vnEmNokhRiK9KeRlddToKMHjsT9Aqgau26bNPc2yiMZUKjbuuy99FolvOcqVunY8Cduqr03n0iA2noaG3snWA0u3kkdibo8AZeqxJcd9HMVWDSpARbDnoSQJj0vuAIGe4rqoTg1DdvJMuE/G7BwRtLr8Pim5KuQK4a9Wi/oEsGipISmvWhJByl7od4CZRB4pTgpKF7SQIm3YhzZtwZtAsMPPoXGKmN7e3DDFzYSwwd0Di2LlQpjmh/MBk6ElHZKSHYmSgqMayP7IZuGnW1Jtlup4owTLcSXIcVXQsRofi19s6eoWUXrcbvPBSmwrZR0kFTEIHHIjUT7tRpHPfNLbmP2bdMCH5w6TbKQK9N5exeX3h7aFqVbnue3z/LhDxeQzMhjY1imZD8wnFnYdUh4QeXJ+iPf+/Pl/3hcH2+3v7fv1f16PrWlcc/);fillColor=none;" vertex="1" parent="1">
          <mxGeometry x="656.9166946411133" y="475.5000457763672" width="45.08336639404297" height="38.00000762939453" as="geometry" />
        </mxCell>
        <mxCell id="-fu1nE9woaN9EDl2x0Zj-33" value="" style="shape=stencil(lZPbbsQgDES/hlfL2GDgebv9j5U220RNk1U2vf19iVAvkELVN8fhRDNMRvHh1p+unSK8rcv82L0O57VXfKeIhqnvlmGNk+Kj4sNlXrqHZX6ezun5etpObtPT/LJ94S1xGhEQN4zwPa2+FvcJGIepDXhw5l+AFuBQJ4IGbzKADLDUAR+AQg54IN8ALDjKABZA1wAIdC7JMJiGa2dL0xbBUx0QB15yIHpoBCFYehADztYBy2BdBjgE08jBCBjOAQHiOsC7HLwG3ZDEu2uNyUgjadKlpJh9y7Q2paTwR3CloiCf9/zr+f3PjWWB4vBdv8swjqm9P9+XdY2rVHU+fgA=);fillColor=none;" vertex="1" parent="1">
          <mxGeometry x="676.3333740234375" y="480.66668701171875" width="2.33331298828125" height="20.333343505859375" as="geometry" />
        </mxCell>
        <mxCell id="-fu1nE9woaN9EDl2x0Zj-34" value="" style="shape=stencil(hZTbboMwEES/xq8jexffntP0PyKFFFQKESG9/H1BCJqlZftmljlm7RnW8OFWna6lIXsb+u61/KjPQ2X4yRDVbVX29TCuDB8NHy5dX7703b09z8/X06ScVm/d+7TD58xZWDtBZL/mgrNr6XkGmrrVgOwQ4r6+QPRCn4KqdwybBBADXFaAgCy/EC0S7wPEiCyAYFHQPsAWWQJevyNO8EEAhUVQWio8ogTYgfw+4AmOBECErJzBx6WB1Wjdh+CQZEuO4JVDh9GmTTLASdHnpeE1GWDljuIv2/7RR/hC5gKk5Cg5sDxwUC1IHi7KVICcok/IMtjFssGf+sygjcWIyn3m0U8n9HpIH370PWBc/MyNS90089h5fL+dM2NpnlF8/AY=);fillColor=none;" vertex="1" parent="1">
          <mxGeometry x="669.3333740234375" y="487.3333740234375" width="19.666656494140625" height="8" as="geometry" />
        </mxCell>
        <mxCell id="-fu1nE9woaN9EDl2x0Zj-37" value="" style="rounded=0;whiteSpace=wrap;html=1;" vertex="1" parent="1">
          <mxGeometry x="340" y="100" width="120" height="60" as="geometry" />
        </mxCell>
        <mxCell id="-fu1nE9woaN9EDl2x0Zj-38" value="" style="rounded=0;whiteSpace=wrap;html=1;" vertex="1" parent="1">
          <mxGeometry x="800" y="80" width="490" height="460" as="geometry" />
        </mxCell>
        <mxCell id="-fu1nE9woaN9EDl2x0Zj-40" value="" style="shape=link;html=1;rounded=0;" edge="1" parent="1" target="-fu1nE9woaN9EDl2x0Zj-41">
          <mxGeometry width="100" relative="1" as="geometry">
            <mxPoint x="950" y="160" as="sourcePoint" />
            <mxPoint x="1050" y="160" as="targetPoint" />
          </mxGeometry>
        </mxCell>
        <mxCell id="-fu1nE9woaN9EDl2x0Zj-41" value="" style="line;strokeWidth=2;html=1;" vertex="1" parent="1">
          <mxGeometry x="800" y="155" width="480" height="10" as="geometry" />
        </mxCell>
        <mxCell id="-fu1nE9woaN9EDl2x0Zj-42" value="" style="verticalLabelPosition=bottom;verticalAlign=top;html=1;shape=mxgraph.basic.rect;fillColor2=none;strokeWidth=1;size=20;indent=5;" vertex="1" parent="1">
          <mxGeometry x="800" y="460" width="490" height="75.5" as="geometry" />
        </mxCell>
        <mxCell id="-fu1nE9woaN9EDl2x0Zj-43" value="" style="verticalLabelPosition=bottom;verticalAlign=top;html=1;shape=mxgraph.basic.rect;fillColor2=none;strokeWidth=1;size=20;indent=5;" vertex="1" parent="1">
          <mxGeometry x="1360" y="79.25" width="530" height="460.75" as="geometry" />
        </mxCell>
      </root>
    </mxGraphModel>
  </diagram>
</mxfile>
